<svg id="Capa_1" enable-background="new 0 0 512 512" height="512" viewBox="0 0 512 512" width="512" xmlns="http://www.w3.org/2000/svg"><g><circle cx="256" cy="256" fill="#96e192" r="256"/><g><path d="m508.627 297.543-206.945-206.945-127.322 126.802-31.035 230.678 58.063 58.063c17.6 3.826 35.867 5.859 54.612 5.859 127.238 0 232.776-92.832 252.627-214.457z" fill="#73d093"/></g><g><path d="m163.325 448.078h-20v-53.76l20-20z" fill="#fff"/><path d="m309.328 371.197-51.265-51.265 94.419-94.419c14.156-14.156 37.109-14.156 51.265 0 14.156 14.156 14.156 37.109 0 51.265z" fill="#ff9e00"/><g><path d="m143.325 350.961v43.357h93.12l10-20-10-53.824z" fill="#ff4e51"/><path d="m329.565 350.961-93.12-30.467v73.824h93.12z" fill="#f72553"/></g><g><path d="m236.445 63.921c-51.429 0-93.12 41.691-93.12 93.12v193.92h93.12l20-118.961z" fill="#ffd17e"/><path d="m329.565 157.042c0-51.429-41.691-93.12-93.12-93.12v287.04h93.12z" fill="#ffb739"/></g></g></g></svg>