<svg width="90" height="90" viewBox="0 0 90 90" fill="none" xmlns="http://www.w3.org/2000/svg">
<circle cx="45" cy="45" r="45" fill="#CCF8FE"/>
<path fill-rule="evenodd" clip-rule="evenodd" d="M46.9149 58.4042H55.5319V50.7446H46.9149V58.4042ZM34.4681 58.4042H43.0851V50.7446H34.4681V58.4042ZM31.5957 39.6382C31.5957 39.4793 31.6206 39.351 31.6455 39.2552H37.6143H43.0851V46.9148H31.6455C31.6206 46.8191 31.5957 46.6908 31.5957 46.5318V39.6382ZM35.4255 33.5105C35.4255 32.4535 36.4079 31.5957 37.6143 31.5957C40.0213 31.5957 41.4957 33.6829 42.3077 35.4254H37.6143C36.4079 35.4254 35.4255 34.5676 35.4255 33.5105V33.5105ZM52.3858 31.5957C53.5922 31.5957 54.5745 32.4535 54.5745 33.5105C54.5745 34.5676 53.5922 35.4254 52.3858 35.4254H47.6809C48.4851 33.6829 49.9558 31.5957 52.3858 31.5957V31.5957ZM58.4043 39.6382V46.5318C58.4043 46.6908 58.3794 46.8191 58.3545 46.9148H46.9149V39.2552H52.3857H58.3545C58.3794 39.351 58.4043 39.4793 58.4043 39.6382V39.6382ZM58.7872 35.4254H58.0347C58.2606 34.8242 58.4043 34.1865 58.4043 33.5105C58.4043 30.3433 55.7043 27.7659 52.3857 27.7659C48.7053 27.7659 46.396 30.0618 45 32.3559C43.604 30.0618 41.2947 27.7659 37.6143 27.7659C34.2957 27.7659 31.5957 30.3433 31.5957 33.5105C31.5957 34.1865 31.7413 34.8242 31.9653 35.4254H31.2128C29.2806 35.4254 27.766 37.2771 27.766 39.6382V46.5318C27.766 48.6516 28.9915 50.3482 30.6383 50.6757V59.0418C30.6383 60.8016 32.1951 62.234 34.1081 62.234H55.89C57.8049 62.234 59.3617 60.8016 59.3617 59.0418V50.6757C61.0085 50.3482 62.234 48.6516 62.234 46.5318V39.6382C62.234 37.2771 60.7194 35.4254 58.7872 35.4254V35.4254Z" fill="black"/>
<mask id="mask0" mask-type="alpha" maskUnits="userSpaceOnUse" x="27" y="27" width="36" height="36">
<path fill-rule="evenodd" clip-rule="evenodd" d="M46.9149 58.4042H55.5319V50.7446H46.9149V58.4042ZM34.4681 58.4042H43.0851V50.7446H34.4681V58.4042ZM31.5957 39.6382C31.5957 39.4793 31.6206 39.351 31.6455 39.2552H37.6143H43.0851V46.9148H31.6455C31.6206 46.8191 31.5957 46.6908 31.5957 46.5318V39.6382ZM35.4255 33.5105C35.4255 32.4535 36.4079 31.5957 37.6143 31.5957C40.0213 31.5957 41.4957 33.6829 42.3077 35.4254H37.6143C36.4079 35.4254 35.4255 34.5676 35.4255 33.5105V33.5105ZM52.3858 31.5957C53.5922 31.5957 54.5745 32.4535 54.5745 33.5105C54.5745 34.5676 53.5922 35.4254 52.3858 35.4254H47.6809C48.4851 33.6829 49.9558 31.5957 52.3858 31.5957V31.5957ZM58.4043 39.6382V46.5318C58.4043 46.6908 58.3794 46.8191 58.3545 46.9148H46.9149V39.2552H52.3857H58.3545C58.3794 39.351 58.4043 39.4793 58.4043 39.6382V39.6382ZM58.7872 35.4254H58.0347C58.2606 34.8242 58.4043 34.1865 58.4043 33.5105C58.4043 30.3433 55.7043 27.7659 52.3857 27.7659C48.7053 27.7659 46.396 30.0618 45 32.3559C43.604 30.0618 41.2947 27.7659 37.6143 27.7659C34.2957 27.7659 31.5957 30.3433 31.5957 33.5105C31.5957 34.1865 31.7413 34.8242 31.9653 35.4254H31.2128C29.2806 35.4254 27.766 37.2771 27.766 39.6382V46.5318C27.766 48.6516 28.9915 50.3482 30.6383 50.6757V59.0418C30.6383 60.8016 32.1951 62.234 34.1081 62.234H55.89C57.8049 62.234 59.3617 60.8016 59.3617 59.0418V50.6757C61.0085 50.3482 62.234 48.6516 62.234 46.5318V39.6382C62.234 37.2771 60.7194 35.4254 58.7872 35.4254V35.4254Z" fill="white"/>
</mask>
<g mask="url(#mask0)">
</g>
</svg>
